<?xml version="1.0" standalone="no"?>
 <!DOCTYPE svg PUBLIC "-//W3C//DTD SVG 1.1//EN" 
 "http://www.w3.org/Graphics/SVG/1.1/DTD/svg11.dtd"> 
<svg xmlns="http://www.w3.org/2000/svg" version="1.1" 
    width="29.7002cm" height="21.0007cm" viewBox="0 0 116930 82680 ">
<title>SVG Picture created as GoTrackPCB-F.Cu.svg date 2017/09/27 17:37:03 </title>
  <desc>Picture generated by PCBNEW </desc>
<g style="fill:#000000; fill-opacity:1;stroke:#000000; stroke-opacity:1;
stroke-linecap:round; stroke-linejoin:round; "
 transform="translate(0 0) scale(1 1)">
</g>
<g style="fill:#000000; fill-opacity:0.0; 
stroke:#000000; stroke-width:-0.000393701; stroke-opacity:1; 
stroke-linecap:round; stroke-linejoin:round;">
</g>
<g style="fill:#000000; fill-opacity:0.0; 
stroke:#000000; stroke-width:39.3701; stroke-opacity:1; 
stroke-linecap:round; stroke-linejoin:round;">
<path d="M66142 23622
L66142 48031
" />
<path d="M40158 23622
L66142 23622
" />
<path d="M40158 48031
L40158 23622
" />
<path d="M40158 48031
L66142 48031
" />
</g>
<g style="fill:#000000; fill-opacity:0.0; 
stroke:#000000; stroke-width:0; stroke-opacity:1; 
stroke-linecap:round; stroke-linejoin:round;">
</g>
<g style="fill:#000000; fill-opacity:1.0; 
stroke:#000000; stroke-width:0; stroke-opacity:1; 
stroke-linecap:round; stroke-linejoin:round;">
<polyline style="fill-rule:evenodd;"
points="63505,30239
63505,30593
63977,30593
63977,30239
63505,30239
" /> 
<polyline style="fill-rule:evenodd;"
points="64371,30239
64371,30593
64843,30593
64843,30239
64371,30239
" /> 
</g>
<g style="fill:#000000; fill-opacity:1.0; 
stroke:#000000; stroke-width:669.291; stroke-opacity:1; 
stroke-linecap:round; stroke-linejoin:round;">
</g>
<g style="fill:#000000; fill-opacity:0.0; 
stroke:#000000; stroke-width:669.291; stroke-opacity:1; 
stroke-linecap:round; stroke-linejoin:round;">
<path d="M52914 27755
L52914 27755
" />
<path d="M52914 28755
L52914 28755
" />
<path d="M52914 29755
L52914 29755
" />
<path d="M52914 30755
L52914 30755
" />
<path d="M52914 31755
L52914 31755
" />
<path d="M52914 32755
L52914 32755
" />
<path d="M52914 33755
L52914 33755
" />
<path d="M52914 34755
L52914 34755
" />
<path d="M52914 35755
L52914 35755
" />
<path d="M52914 36755
L52914 36755
" />
<path d="M52914 37755
L52914 37755
" />
<path d="M52914 38755
L52914 38755
" />
<path d="M52914 39755
L52914 39755
" />
<path d="M52914 40755
L52914 40755
" />
<path d="M52914 41755
L52914 41755
" />
<path d="M52914 42755
L52914 42755
" />
<path d="M52914 43755
L52914 43755
" />
<path d="M52914 44755
L52914 44755
" />
<path d="M52914 45755
L52914 45755
" />
<path d="M42914 45755
L42914 45755
" />
<path d="M42914 44755
L42914 44755
" />
<path d="M42914 43755
L42914 43755
" />
<path d="M42914 42755
L42914 42755
" />
<path d="M42914 41755
L42914 41755
" />
<path d="M42914 40755
L42914 40755
" />
<path d="M42914 39755
L42914 39755
" />
<path d="M42914 38755
L42914 38755
" />
<path d="M42914 37755
L42914 37755
" />
<path d="M42914 36755
L42914 36755
" />
<path d="M42914 35755
L42914 35755
" />
<path d="M42914 34755
L42914 34755
" />
<path d="M42914 33755
L42914 33755
" />
<path d="M42914 32755
L42914 32755
" />
<path d="M42914 31755
L42914 31755
" />
<path d="M42914 30755
L42914 30755
" />
<path d="M42914 29755
L42914 29755
" />
<path d="M42914 28755
L42914 28755
" />
<path d="M42914 27755
L42914 27755
" />
</g>
<g style="fill:#000000; fill-opacity:0.0; 
stroke:#000000; stroke-width:0; stroke-opacity:1; 
stroke-linecap:round; stroke-linejoin:round;">
</g>
<g style="fill:#000000; fill-opacity:1.0; 
stroke:#000000; stroke-width:0; stroke-opacity:1; 
stroke-linecap:round; stroke-linejoin:round;">
<polyline style="fill-rule:evenodd;"
points="42954,25433
42954,25747
43268,25747
43268,25433
42954,25433
" /> 
<polyline style="fill-rule:evenodd;"
points="43544,25433
43544,25747
43858,25747
43858,25433
43544,25433
" /> 
<polyline style="fill-rule:evenodd;"
points="53208,25747
53208,25433
52894,25433
52894,25747
53208,25747
" /> 
<polyline style="fill-rule:evenodd;"
points="52618,25747
52618,25433
52304,25433
52304,25747
52618,25747
" /> 
<polyline style="fill-rule:evenodd;"
points="44725,42755
44725,41889
44252,41889
44252,42755
44725,42755
" /> 
<polyline style="fill-rule:evenodd;"
points="50827,42755
50827,41889
50355,41889
50355,42755
50827,42755
" /> 
<polyline style="fill-rule:evenodd;"
points="45158,38818
45158,38267
44528,38267
44528,38818
45158,38818
" /> 
<polyline style="fill-rule:evenodd;"
points="50827,38818
50827,38267
50355,38267
50355,38818
50827,38818
" /> 
<polyline style="fill-rule:evenodd;"
points="50276,38661
50276,38031
50000,38031
50000,38661
50276,38661
" /> 
<polyline style="fill-rule:evenodd;"
points="49410,38661
49410,38031
49134,38031
49134,38661
49410,38661
" /> 
<polyline style="fill-rule:evenodd;"
points="49843,38661
49843,38031
49567,38031
49567,38661
49843,38661
" /> 
<polyline style="fill-rule:evenodd;"
points="48977,38661
48977,38031
48701,38031
48701,38661
48977,38661
" /> 
<polyline style="fill-rule:evenodd;"
points="48544,38661
48544,38031
48268,38031
48268,38661
48544,38661
" /> 
<polyline style="fill-rule:evenodd;"
points="48111,38661
48111,38031
47835,38031
47835,38661
48111,38661
" /> 
<polyline style="fill-rule:evenodd;"
points="46811,38661
46811,38031
46536,38031
46536,38661
46811,38661
" /> 
<polyline style="fill-rule:evenodd;"
points="47244,38661
47244,38031
46969,38031
46969,38661
47244,38661
" /> 
<polyline style="fill-rule:evenodd;"
points="47678,38661
47678,38031
47402,38031
47402,38661
47678,38661
" /> 
<polyline style="fill-rule:evenodd;"
points="61329,34159
62129,34159
62129,33359
61329,33359
61329,34159
" /> 
</g>
<g style="fill:#000000; fill-opacity:1.0; 
stroke:#000000; stroke-width:800; stroke-opacity:1; 
stroke-linecap:round; stroke-linejoin:round;">
</g>
<g style="fill:#000000; fill-opacity:0.0; 
stroke:#000000; stroke-width:800; stroke-opacity:1; 
stroke-linecap:round; stroke-linejoin:round;">
<path d="M60729 33759
L60729 33759
" />
</g>
<g style="fill:#000000; fill-opacity:0.0; 
stroke:#000000; stroke-width:0; stroke-opacity:1; 
stroke-linecap:round; stroke-linejoin:round;">
</g>
<g style="fill:#000000; fill-opacity:1.0; 
stroke:#000000; stroke-width:0; stroke-opacity:1; 
stroke-linecap:round; stroke-linejoin:round;">
<polyline style="fill-rule:evenodd;"
points="44213,26751
44213,26397
43741,26397
43741,26751
44213,26751
" /> 
<polyline style="fill-rule:evenodd;"
points="43347,26751
43347,26397
42874,26397
42874,26751
43347,26751
" /> 
<polyline style="fill-rule:evenodd;"
points="51930,26397
51930,26751
52402,26751
52402,26397
51930,26397
" /> 
<polyline style="fill-rule:evenodd;"
points="52796,26397
52796,26751
53268,26751
53268,26397
52796,26397
" /> 
</g>
<g style="fill:#000000; fill-opacity:1.0; 
stroke:#000000; stroke-width:590.551; stroke-opacity:1; 
stroke-linecap:round; stroke-linejoin:round;">
</g>
<g style="fill:#000000; fill-opacity:0.0; 
stroke:#000000; stroke-width:590.551; stroke-opacity:1; 
stroke-linecap:round; stroke-linejoin:round;">
<path d="M55284 25779
L55284 26188
" />
<path d="M56284 25779
L56284 26188
" />
<path d="M57284 25779
L57284 26188
" />
<path d="M58284 25779
L58284 26188
" />
<path d="M59284 25779
L59284 26188
" />
<path d="M60284 25779
L60284 26188
" />
<path d="M61284 25779
L61284 26188
" />
<path d="M62284 25779
L62284 26188
" />
</g>
<g style="fill:#000000; fill-opacity:0.0; 
stroke:#000000; stroke-width:0; stroke-opacity:1; 
stroke-linecap:round; stroke-linejoin:round;">
</g>
<g style="fill:#000000; fill-opacity:1.0; 
stroke:#000000; stroke-width:0; stroke-opacity:1; 
stroke-linecap:round; stroke-linejoin:round;">
<polyline style="fill-rule:evenodd;"
points="58800,33425
58800,34133
59351,34133
59351,33425
58800,33425
" /> 
<polyline style="fill-rule:evenodd;"
points="57500,33425
57500,34133
58052,34133
58052,33425
57500,33425
" /> 
<polyline style="fill-rule:evenodd;"
points="57500,31535
57500,32244
58052,32244
58052,31535
57500,31535
" /> 
<polyline style="fill-rule:evenodd;"
points="58800,31535
58800,32244
59351,32244
59351,31535
58800,31535
" /> 
<circle cx="54626.9" cy="35519.7" r="354.331" /> 
</g>
<g style="fill:#000000; fill-opacity:1.0; 
stroke:#000000; stroke-width:39.3701; stroke-opacity:1; 
stroke-linecap:round; stroke-linejoin:round;">
</g>
<g style="fill:#000000; fill-opacity:1.0; 
stroke:#000000; stroke-width:0; stroke-opacity:1; 
stroke-linecap:round; stroke-linejoin:round;">
<circle cx="54626.9" cy="36519.7" r="354.331" /> 
</g>
<g style="fill:#000000; fill-opacity:1.0; 
stroke:#000000; stroke-width:39.3701; stroke-opacity:1; 
stroke-linecap:round; stroke-linejoin:round;">
</g>
<g style="fill:#000000; fill-opacity:1.0; 
stroke:#000000; stroke-width:0; stroke-opacity:1; 
stroke-linecap:round; stroke-linejoin:round;">
<circle cx="54626.9" cy="37519.7" r="354.331" /> 
</g>
<g style="fill:#000000; fill-opacity:1.0; 
stroke:#000000; stroke-width:39.3701; stroke-opacity:1; 
stroke-linecap:round; stroke-linejoin:round;">
</g>
<g style="fill:#000000; fill-opacity:1.0; 
stroke:#000000; stroke-width:0; stroke-opacity:1; 
stroke-linecap:round; stroke-linejoin:round;">
<circle cx="54626.9" cy="38519.7" r="354.331" /> 
</g>
<g style="fill:#000000; fill-opacity:1.0; 
stroke:#000000; stroke-width:39.3701; stroke-opacity:1; 
stroke-linecap:round; stroke-linejoin:round;">
</g>
<g style="fill:#000000; fill-opacity:1.0; 
stroke:#000000; stroke-width:0; stroke-opacity:1; 
stroke-linecap:round; stroke-linejoin:round;">
<circle cx="54626.9" cy="39519.7" r="354.331" /> 
</g>
<g style="fill:#000000; fill-opacity:1.0; 
stroke:#000000; stroke-width:39.3701; stroke-opacity:1; 
stroke-linecap:round; stroke-linejoin:round;">
</g>
<g style="fill:#000000; fill-opacity:1.0; 
stroke:#000000; stroke-width:0; stroke-opacity:1; 
stroke-linecap:round; stroke-linejoin:round;">
<circle cx="54626.9" cy="40519.7" r="354.331" /> 
</g>
<g style="fill:#000000; fill-opacity:1.0; 
stroke:#000000; stroke-width:39.3701; stroke-opacity:1; 
stroke-linecap:round; stroke-linejoin:round;">
</g>
<g style="fill:#000000; fill-opacity:1.0; 
stroke:#000000; stroke-width:0; stroke-opacity:1; 
stroke-linecap:round; stroke-linejoin:round;">
<circle cx="54626.9" cy="41519.7" r="354.331" /> 
</g>
<g style="fill:#000000; fill-opacity:1.0; 
stroke:#000000; stroke-width:39.3701; stroke-opacity:1; 
stroke-linecap:round; stroke-linejoin:round;">
</g>
<g style="fill:#000000; fill-opacity:1.0; 
stroke:#000000; stroke-width:0; stroke-opacity:1; 
stroke-linecap:round; stroke-linejoin:round;">
<circle cx="54626.9" cy="42519.7" r="354.331" /> 
</g>
<g style="fill:#000000; fill-opacity:1.0; 
stroke:#000000; stroke-width:39.3701; stroke-opacity:1; 
stroke-linecap:round; stroke-linejoin:round;">
</g>
<g style="fill:#000000; fill-opacity:1.0; 
stroke:#000000; stroke-width:0; stroke-opacity:1; 
stroke-linecap:round; stroke-linejoin:round;">
<circle cx="63626.9" cy="42519.7" r="354.331" /> 
</g>
<g style="fill:#000000; fill-opacity:1.0; 
stroke:#000000; stroke-width:39.3701; stroke-opacity:1; 
stroke-linecap:round; stroke-linejoin:round;">
</g>
<g style="fill:#000000; fill-opacity:1.0; 
stroke:#000000; stroke-width:0; stroke-opacity:1; 
stroke-linecap:round; stroke-linejoin:round;">
<circle cx="63626.9" cy="41519.7" r="354.331" /> 
</g>
<g style="fill:#000000; fill-opacity:1.0; 
stroke:#000000; stroke-width:39.3701; stroke-opacity:1; 
stroke-linecap:round; stroke-linejoin:round;">
</g>
<g style="fill:#000000; fill-opacity:1.0; 
stroke:#000000; stroke-width:0; stroke-opacity:1; 
stroke-linecap:round; stroke-linejoin:round;">
<circle cx="63626.9" cy="40519.7" r="354.331" /> 
</g>
<g style="fill:#000000; fill-opacity:1.0; 
stroke:#000000; stroke-width:39.3701; stroke-opacity:1; 
stroke-linecap:round; stroke-linejoin:round;">
</g>
<g style="fill:#000000; fill-opacity:1.0; 
stroke:#000000; stroke-width:0; stroke-opacity:1; 
stroke-linecap:round; stroke-linejoin:round;">
<circle cx="63626.9" cy="39519.7" r="354.331" /> 
</g>
<g style="fill:#000000; fill-opacity:1.0; 
stroke:#000000; stroke-width:39.3701; stroke-opacity:1; 
stroke-linecap:round; stroke-linejoin:round;">
</g>
<g style="fill:#000000; fill-opacity:1.0; 
stroke:#000000; stroke-width:0; stroke-opacity:1; 
stroke-linecap:round; stroke-linejoin:round;">
<circle cx="63626.9" cy="38519.7" r="354.331" /> 
</g>
<g style="fill:#000000; fill-opacity:1.0; 
stroke:#000000; stroke-width:39.3701; stroke-opacity:1; 
stroke-linecap:round; stroke-linejoin:round;">
</g>
<g style="fill:#000000; fill-opacity:1.0; 
stroke:#000000; stroke-width:0; stroke-opacity:1; 
stroke-linecap:round; stroke-linejoin:round;">
<circle cx="63626.9" cy="37519.7" r="354.331" /> 
</g>
<g style="fill:#000000; fill-opacity:1.0; 
stroke:#000000; stroke-width:39.3701; stroke-opacity:1; 
stroke-linecap:round; stroke-linejoin:round;">
</g>
<g style="fill:#000000; fill-opacity:1.0; 
stroke:#000000; stroke-width:0; stroke-opacity:1; 
stroke-linecap:round; stroke-linejoin:round;">
<circle cx="63626.9" cy="36519.7" r="354.331" /> 
</g>
<g style="fill:#000000; fill-opacity:1.0; 
stroke:#000000; stroke-width:39.3701; stroke-opacity:1; 
stroke-linecap:round; stroke-linejoin:round;">
</g>
<g style="fill:#000000; fill-opacity:1.0; 
stroke:#000000; stroke-width:0; stroke-opacity:1; 
stroke-linecap:round; stroke-linejoin:round;">
<circle cx="63626.9" cy="35519.7" r="354.331" /> 
</g>
<g style="fill:#000000; fill-opacity:1.0; 
stroke:#000000; stroke-width:39.3701; stroke-opacity:1; 
stroke-linecap:round; stroke-linejoin:round;">
</g>
<g style="fill:#000000; fill-opacity:1.0; 
stroke:#000000; stroke-width:0; stroke-opacity:1; 
stroke-linecap:round; stroke-linejoin:round;">
<polyline style="fill-rule:evenodd;"
points="64839,32129
64839,31775
64367,31775
64367,32129
64839,32129
" /> 
<polyline style="fill-rule:evenodd;"
points="63973,32129
63973,31775
63500,31775
63500,32129
63973,32129
" /> 
<circle cx="64961.5" cy="46850.4" r="800" /> 
</g>
<g style="fill:#000000; fill-opacity:1.0; 
stroke:#000000; stroke-width:39.3701; stroke-opacity:1; 
stroke-linecap:round; stroke-linejoin:round;">
</g>
<g style="fill:#000000; fill-opacity:1.0; 
stroke:#000000; stroke-width:0; stroke-opacity:1; 
stroke-linecap:round; stroke-linejoin:round;">
<circle cx="41339.4" cy="46850.4" r="800" /> 
</g>
<g style="fill:#000000; fill-opacity:1.0; 
stroke:#000000; stroke-width:39.3701; stroke-opacity:1; 
stroke-linecap:round; stroke-linejoin:round;">
</g>
<g style="fill:#000000; fill-opacity:1.0; 
stroke:#000000; stroke-width:0; stroke-opacity:1; 
stroke-linecap:round; stroke-linejoin:round;">
<circle cx="41339.4" cy="24803.1" r="800" /> 
</g>
<g style="fill:#000000; fill-opacity:1.0; 
stroke:#000000; stroke-width:39.3701; stroke-opacity:1; 
stroke-linecap:round; stroke-linejoin:round;">
</g>
<g style="fill:#000000; fill-opacity:1.0; 
stroke:#000000; stroke-width:0; stroke-opacity:1; 
stroke-linecap:round; stroke-linejoin:round;">
<circle cx="64961.5" cy="24803.1" r="800" /> 
</g>
<g style="fill:#000000; fill-opacity:1.0; 
stroke:#000000; stroke-width:39.3701; stroke-opacity:1; 
stroke-linecap:round; stroke-linejoin:round;">
</g>
<g style="fill:#000000; fill-opacity:1.0; 
stroke:#000000; stroke-width:0; stroke-opacity:1; 
stroke-linecap:round; stroke-linejoin:round;">
<polyline style="fill-rule:evenodd;"
points="49213,35875
49213,35383
48622,35383
48622,35875
49213,35875
" /> 
<polyline style="fill-rule:evenodd;"
points="48229,35875
48229,35383
47638,35383
47638,35875
48229,35875
" /> 
<polyline style="fill-rule:evenodd;"
points="49016,36761
49016,36466
48544,36466
48544,36761
49016,36761
" /> 
<polyline style="fill-rule:evenodd;"
points="48268,36761
48268,36466
47796,36466
47796,36761
48268,36761
" /> 
<polyline style="fill-rule:evenodd;"
points="49016,37549
49016,37253
48544,37253
48544,37549
49016,37549
" /> 
<polyline style="fill-rule:evenodd;"
points="48268,37549
48268,37253
47796,37253
47796,37549
48268,37549
" /> 
<polyline style="fill-rule:evenodd;"
points="64121,34199
64121,33319
63241,33319
63241,34199
64121,34199
" /> 
</g>
<g style="fill:#000000; fill-opacity:1.0; 
stroke:#000000; stroke-width:157.48; stroke-opacity:1; 
stroke-linecap:round; stroke-linejoin:round;">
</g>
<g style="fill:#000000; fill-opacity:0.0; 
stroke:#000000; stroke-width:157.48; stroke-opacity:1; 
stroke-linecap:round; stroke-linejoin:round;">
<path d="M43111 26574
L43111 25590
" />
<path d="M57855 31299
L59548 31299
" />
<path d="M57776 31889
L57776 31377
" />
<path d="M57776 31377
L57855 31299
" />
<path d="M45158 42047
L44882 42322
" />
<path d="M44882 42322
L44489 42322
" />
<path d="M49689 42047
L45158 42047
" />
<path d="M49964 42322
L49689 42047
" />
<path d="M50591 42322
L49964 42322
" />
<path d="M51772 40755
L50796 40755
" />
<path d="M52914 40755
L51772 40755
" />
<path d="M50296 35826
L50591 36122
" />
<path d="M50591 36122
L50591 38543
" />
<path d="M57776 31889
L57776 31811
" />
<path d="M50796 40755
L50591 40960
" />
<path d="M50591 40960
L50591 42322
" />
<path d="M50796 40755
L50591 40551
" />
<path d="M50591 40551
L50591 38543
" />
<path d="M48800 37401
L48800 36614
" />
<path d="M48839 38346
L48839 37440
" />
<path d="M48839 37440
L48800 37401
" />
<path d="M53032 26574
L53032 25609
" />
<path d="M53032 25609
L53051 25590
" />
<path d="M44292 34940
L44107 34755
" />
<path d="M44107 34755
L43910 34755
" />
<path d="M44292 39007
L44292 34940
" />
<path d="M46457 39173
L44457 39173
" />
<path d="M44457 39173
L44292 39007
" />
<path d="M46674 38346
L46674 38956
" />
<path d="M46674 38956
L46457 39173
" />
<path d="M43910 34755
L42914 34755
" />
<path d="M47107 38346
L47107 38969
" />
<path d="M47107 38969
L46588 39488
" />
<path d="M44327 39488
L43977 39138
" />
<path d="M46588 39488
L44327 39488
" />
<path d="M43977 39138
L43977 35905
" />
<path d="M43977 35905
L43827 35755
" />
<path d="M43827 35755
L42914 35755
" />
<path d="M43630 35755
L42914 35755
" />
<path d="M48327 27755
L47933 27362
" />
<path d="M48327 24803
L56004 24803
" />
<path d="M47933 27362
L47933 25196
" />
<path d="M47933 25196
L48327 24803
" />
<path d="M56004 24803
L56284 25082
" />
<path d="M56284 25082
L56284 25984
" />
<path d="M47933 35826
L47933 28149
" />
<path d="M48327 27755
L52914 27755
" />
<path d="M47933 28149
L48327 27755
" />
<path d="M47933 36614
L47933 35826
" />
<path d="M47933 37401
L47933 36614
" />
<path d="M47973 38346
L47973 37440
" />
<path d="M47973 37440
L47933 37401
" />
<path d="M43662 39268
L43662 37030
" />
<path d="M43662 37030
L43387 36755
" />
<path d="M47894 39803
L44196 39803
" />
<path d="M44196 39803
L43662 39268
" />
<path d="M48406 38346
L48406 39291
" />
<path d="M48406 39291
L47894 39803
" />
<path d="M43387 36755
L42914 36755
" />
<path d="M49272 38346
L49272 38870
" />
<path d="M49272 38870
L48025 40118
" />
<path d="M48025 40118
L43276 40118
" />
<path d="M43276 40118
L43248 40090
" />
<path d="M43248 40090
L42914 39755
" />
<path d="M56496 42519
L61221 42519
" />
<path d="M54626 42519
L56496 42519
" />
<path d="M61729 37598
L61729 33759
" />
<path d="M61729 42011
L61729 37598
" />
<path d="M61221 42519
L61729 42011
" />
<path d="M43685 28755
L43977 28464
" />
<path d="M43977 28464
L43977 26574
" />
<path d="M42914 28755
L43685 28755
" />
<path d="M52166 26574
L52166 26968
" />
<path d="M53741 32929
L52914 33755
" />
<path d="M52166 26968
L52363 27165
" />
<path d="M52363 27165
L53445 27165
" />
<path d="M53445 27165
L53741 27460
" />
<path d="M53741 27460
L53741 32929
" />
<path d="M55503 30619
L55768 30354
" />
<path d="M55768 30354
L58032 30354
" />
<path d="M55503 32545
L55503 30619
" />
<path d="M53292 34755
L55503 32545
" />
<path d="M52914 34755
L53292 34755
" />
<path d="M58284 25984
L58284 29625
" />
<path d="M58284 29625
L58284 29807
" />
<path d="M58284 30102
L58284 29625
" />
<path d="M58284 26385
L58284 25984
" />
<path d="M58032 30354
L58284 30102
" />
<path d="M52914 35755
L53465 35204
" />
<path d="M53465 35204
L53465 35001
" />
<path d="M53465 35001
L55946 32520
" />
<path d="M55946 32520
L55946 30865
" />
<path d="M59016 30649
L59284 30381
" />
<path d="M59284 29625
L59284 25984
" />
<path d="M55946 30865
L56162 30649
" />
<path d="M56162 30649
L59016 30649
" />
<path d="M59284 30381
L59284 29625
" />
<path d="M59284 26385
L59284 25984
" />
<path d="M57626 30984
L57776 30984
" />
<path d="M56300 31200
L56516 30984
" />
<path d="M57776 30984
L59272 30984
" />
<path d="M56516 30984
L57776 30984
" />
<path d="M56300 32583
L56300 31200
" />
<path d="M52914 36755
L53599 36755
" />
<path d="M53599 36755
L53760 36594
" />
<path d="M53760 36594
L53760 35123
" />
<path d="M53760 35123
L56300 32583
" />
<path d="M59272 30984
L60284 29972
" />
<path d="M60284 29972
L60284 25984
" />
<path d="M60284 26385
L60284 25984
" />
<path d="M59075 31889
L59075 31968
" />
<path d="M56650 32651
L54055 35245
" />
<path d="M54055 35245
L54055 37578
" />
<path d="M59075 31968
L58422 32622
" />
<path d="M58422 32622
L56650 32622
" />
<path d="M56650 32622
L56650 32651
" />
<path d="M54055 37578
L53878 37755
" />
<path d="M53878 37755
L52914 37755
" />
<path d="M52914 45755
L62512 45755
" />
<path d="M62512 45755
L62796 45472
" />
<path d="M62796 31889
L62599 31692
" />
<path d="M62599 31692
L60945 31692
" />
<path d="M62796 45472
L62796 31889
" />
<path d="M60945 31692
L60729 31909
" />
<path d="M60729 31909
L60729 33759
" />
<path d="M60729 33759
L59095 33759
" />
<path d="M59095 33759
L59075 33779
" />
<path d="M54626 37519
L53390 38755
" />
<path d="M53390 38755
L52914 38755
" />
<path d="M54626 38519
L53390 39755
" />
<path d="M53390 39755
L52914 39755
" />
<path d="M54626 39519
L53485 40661
" />
<path d="M53485 40661
L53485 41185
" />
<path d="M53485 41185
L53248 41421
" />
<path d="M53248 41421
L52914 41755
" />
</g>
<g style="fill:#000000; fill-opacity:0.0; 
stroke:#000000; stroke-width:118.11; stroke-opacity:1; 
stroke-linecap:round; stroke-linejoin:round;">
<path d="M42914 42755
L43387 42755
" />
<path d="M43387 42755
L43895 43263
" />
<path d="M43895 43263
L53489 43263
" />
<path d="M53489 43263
L53839 42913
" />
<path d="M53839 42913
L53839 40846
" />
<path d="M53839 40846
L54134 40551
" />
<path d="M54134 40551
L54595 40551
" />
<path d="M54595 40551
L54626 40519
" />
</g>
<g style="fill:#000000; fill-opacity:0.0; 
stroke:#000000; stroke-width:157.48; stroke-opacity:1; 
stroke-linecap:round; stroke-linejoin:round;">
<path d="M61284 26385
L61284 25984
" />
<path d="M62284 26385
L62284 25984
" />
<path d="M64603 31952
L64603 45141
" />
<path d="M64603 45141
L63209 46535
" />
<path d="M63209 46535
L42558 46535
" />
<path d="M42558 46535
L42126 46104
" />
<path d="M42126 46104
L42126 39074
" />
<path d="M42126 39074
L42422 38779
" />
<path d="M42422 38779
L42422 38774
" />
<path d="M42422 38774
L42440 38755
" />
<path d="M42440 38755
L42914 38755
" />
<path d="M64607 30416
L64607 31948
" />
<path d="M63681 33759
L63681 32007
" />
<path d="M63681 32007
L63737 31952
" />
</g>
<g style="fill:#000000; fill-opacity:1.0; 
stroke:#000000; stroke-width:100; stroke-opacity:1; 
stroke-linecap:round; stroke-linejoin:round;">
<polyline style="fill-rule:evenodd;"
points="65549,23908
65638,24055
64961,24732
64284,24055
64373,23908
64414,23891
41886,23891
41927,23908
42016,24055
41339,24732
40662,24055
40751,23908
40792,23891
40428,23891
40428,24255
40444,24215
40592,24126
41268,24803
40592,25479
40444,25391
40428,25349
40428,46302
40444,46262
40592,46173
41268,46850
40592,47526
40444,47438
40428,47396
40428,47761
40792,47761
40751,47744
40662,47597
41339,46921
42016,47597
41927,47744
41885,47761
64414,47761
64373,47744
64284,47597
64961,46921
65638,47597
65549,47744
65508,47761
65872,47761
65872,47397
65856,47438
65708,47526
65032,46850
64890,46850
64214,47526
64066,47438
63909,47051
63913,46633
64066,46262
64214,46173
64890,46850
65032,46850
65708,46173
65856,46262
65872,46303
65872,46103
65638,46103
64961,46779
64284,46103
64373,45955
64760,45798
65178,45801
65549,45955
65638,46103
65872,46103
65872,30239
65098,30239
65098,30593
65081,30686
65026,30771
64942,30828
64936,30829
64936,31540
65017,31592
65074,31676
65094,31775
65094,32129
65076,32222
65022,32307
64938,32364
64932,32365
64932,45141
64906,45267
64887,45296
64835,45374
63441,46767
63335,46839
63209,46864
42558,46864
42432,46839
42389,46810
42387,47067
42234,47438
42086,47526
41410,46850
41415,46844
41345,46774
41339,46779
40662,46103
40751,45955
41138,45798
41556,45801
41798,45902
41798,39074
41823,38948
41894,38842
42180,38556
42189,38542
42208,38523
42279,38475
42315,38452
42431,38429
42489,38342
42618,38255
42489,38169
42362,37979
42318,37755
42362,37532
42489,37342
42618,37255
42489,37169
42362,36979
42318,36755
42362,36532
42489,36342
42618,36255
42489,36169
42362,35979
42318,35755
42362,35532
42489,35342
42618,35255
42489,35169
42362,34979
42318,34755
42362,34532
42489,34342
42618,34255
42489,34169
42362,33979
42318,33755
42362,33532
42489,33342
42618,33255
42489,33169
42362,32979
42318,32755
42362,32532
42489,32342
42618,32255
42489,32169
42362,31979
42318,31755
42362,31532
42489,31342
42618,31255
42489,31169
42362,30979
42318,30755
42362,30532
42489,30342
42618,30255
42489,30169
42362,29979
42318,29755
42362,29532
42489,29342
42618,29255
42489,29169
42362,28979
42318,28755
42362,28532
42489,28342
42623,28252
42567,28226
42413,28057
42346,27896
42394,27805
42864,27805
42864,27813
42964,27813
42964,27805
43433,27805
43481,27896
43414,28057
43261,28226
43204,28252
43339,28342
43395,28427
43549,28427
43648,28328
43648,27615
43481,27615
43433,27705
42964,27705
42964,27235
42864,27235
42864,27705
42394,27705
42346,27615
42413,27453
42567,27285
42773,27188
42864,27235
42964,27235
43054,27188
43261,27285
43414,27453
43481,27615
43648,27615
43648,26989
43648,26989
43563,26934
43544,26907
43530,26929
43446,26986
43347,27006
42874,27006
42782,26989
42697,26934
42640,26851
42619,26751
42619,26397
42637,26304
42692,26219
42775,26162
42782,26161
42782,25934
42776,25930
42719,25846
42699,25747
42699,25550
42016,25550
41927,25697
41540,25854
41122,25851
40751,25697
40662,25550
41339,24873
42016,25550
42699,25550
42699,25433
42716,25340
42771,25255
42854,25198
42954,25178
43268,25178
43360,25196
43401,25222
43402,25221
43494,25183
43588,25183
43651,25246
43651,25540
43643,25540
43643,25640
43651,25640
43651,25935
43588,25997
43494,25997
43439,25974
43439,26160
43439,26160
43525,26214
43543,26242
43558,26219
43641,26162
43741,26142
44213,26142
44306,26160
44391,26214
44448,26298
44468,26397
44468,26751
44450,26844
44396,26929
44312,26986
44305,26988
44305,28464
44280,28590
44254,28630
44209,28697
43918,28988
43811,29059
43685,29084
43395,29084
43339,29169
43209,29255
43339,29342
43465,29532
43510,29755
43465,29979
43339,30169
43209,30255
43339,30342
43465,30532
43510,30755
43465,30979
43339,31169
43209,31255
43339,31342
43465,31532
43510,31755
43465,31979
43339,32169
43209,32255
43339,32342
43465,32532
43510,32755
43465,32979
43339,33169
43209,33255
43339,33342
43465,33532
43510,33755
43465,33979
43339,34169
43209,34255
43339,34342
43395,34427
44107,34427
44232,34452
44339,34523
44524,34708
44595,34815
44620,34940
44620,38017
44730,38017
44793,38080
44793,38493
44785,38493
44785,38593
44793,38593
44793,38601
44893,38601
44893,38593
45345,38593
45408,38655
45408,38844
46321,38844
46343,38822
46301,38760
46281,38661
46281,38217
45408,38217
45408,38430
45345,38493
44893,38493
44893,38080
44955,38017
45208,38017
45299,38055
45370,38126
45408,38217
46281,38217
46281,38031
46298,37938
46353,37853
46437,37796
46536,37776
46811,37776
46893,37791
46969,37776
47244,37776
47327,37792
47352,37781
47427,37781
47490,37843
47490,37983
47499,38031
47499,38661
47490,38712
47490,38848
47435,38903
47435,38969
47410,39094
47367,39159
47339,39201
47066,39474
47758,39474
48077,39155
48077,38916
47835,38916
47753,38900
47727,38911
47652,38911
47590,38848
47590,38708
47580,38661
47580,38031
47590,37980
47590,37843
47644,37789
47644,37748
47618,37731
47561,37648
47541,37549
47541,37253
47558,37161
47605,37088
47605,36925
47561,36860
47541,36761
47541,36466
47558,36373
47605,36301
47605,36124
47546,36113
47460,36058
47403,35975
47383,35875
47383,35383
47401,35291
47455,35206
47539,35149
47605,35135
47605,28149
47607,28135
47630,28023
47701,27917
47862,27755
47701,27594
47630,27488
47605,27362
47605,25703
44108,25703
44108,25797
44070,25889
43999,25959
43907,25997
43813,25997
43751,25935
43751,25640
44045,25640
44108,25703
47605,25703
47605,25383
44108,25383
44108,25478
44045,25540
43751,25540
43751,25246
43813,25183
43907,25183
43999,25221
44070,25291
44108,25383
47605,25383
47605,25196
47608,25178
47630,25071
47701,24964
48063,24602
42390,24602
42387,25019
42234,25391
42086,25479
41410,24803
42086,24126
42234,24215
42390,24602
48063,24602
48095,24570
48201,24499
48327,24474
56004,24474
56130,24499
56237,24570
56516,24850
56588,24956
56613,25082
56613,25341
56669,25379
56788,25556
56789,25560
56799,25524
56934,25358
57121,25256
57150,25251
57234,25299
57234,25934
57226,25934
57226,26034
57234,26034
57234,26669
57150,26717
57121,26711
56934,26609
56799,26443
56789,26407
56788,26412
56669,26589
56492,26707
56284,26748
56075,26707
55898,26589
55784,26417
55669,26589
55492,26707
55284,26748
55075,26707
54898,26589
54780,26412
54739,26203
54739,25764
54780,25556
54898,25379
55075,25261
55284,25219
55492,25261
55669,25379
55784,25550
55898,25379
55955,25341
55955,25218
55868,25131
48463,25131
48262,25333
48262,27226
48463,27427
52174,27427
52130,27397
51933,27200
51862,27094
51841,26990
51837,26989
51752,26934
51695,26851
51675,26751
51675,26397
51692,26304
51747,26219
51830,26162
51930,26142
52402,26142
52495,26160
52580,26214
52598,26242
52613,26219
52696,26162
52703,26161
52703,25982
52668,25997
52573,25997
52511,25935
52511,25640
52411,25640
52411,25935
52348,25997
52254,25997
52162,25959
52092,25889
52054,25797
52054,25703
52116,25640
52411,25640
52511,25640
52519,25640
52519,25540
52511,25540
52511,25246
52411,25246
52411,25540
52116,25540
52054,25478
52054,25383
52092,25291
52162,25221
52254,25183
52348,25183
52411,25246
52511,25246
52573,25183
52668,25183
52760,25221
52760,25222
52795,25198
52894,25178
53208,25178
53301,25196
53386,25250
53443,25334
53463,25433
53463,25747
53445,25840
53391,25925
53361,25945
53361,26160
53361,26160
53446,26214
53503,26298
53523,26397
53523,26751
53506,26844
53503,26848
53571,26861
53596,26878
53678,26932
53973,27228
54044,27334
54069,27460
54069,32929
54044,33054
53999,33122
53973,33161
53488,33646
53510,33755
53465,33979
53339,34169
53209,34255
53280,34303
55174,32409
55174,30619
55199,30493
55270,30387
55536,30121
55571,30098
55642,30050
55768,30025
57896,30025
57955,29966
57955,26627
57898,26589
57780,26412
57779,26407
57768,26443
57634,26609
57446,26711
57418,26717
57334,26669
57334,26034
57342,26034
57342,25934
57334,25934
57334,25299
57418,25251
57446,25256
57634,25358
57768,25524
57779,25560
57780,25556
57898,25379
58075,25261
58284,25219
58492,25261
58669,25379
58784,25550
58898,25379
59075,25261
59284,25219
59492,25261
59669,25379
59784,25550
59898,25379
60075,25261
60284,25219
60492,25261
60669,25379
60784,25550
60898,25379
61075,25261
61284,25219
61492,25261
61669,25379
61784,25550
61898,25379
62075,25261
62284,25219
62492,25261
62669,25379
62788,25556
62829,25764
62829,26203
62788,26412
62669,26589
62492,26707
62284,26748
62075,26707
61898,26589
61784,26417
61669,26589
61492,26707
61284,26748
61075,26707
60898,26589
60784,26417
60669,26589
60613,26627
60613,29972
60588,30098
60555,30146
60516,30204
59504,31216
59398,31287
59394,31288
59443,31297
59528,31352
59586,31436
59606,31535
59606,32244
59588,32336
59533,32421
59450,32478
59351,32498
59010,32498
58654,32854
58547,32925
58422,32950
56815,32950
54820,34945
54968,35007
55138,35176
55231,35398
55231,35639
55139,35861
54981,36019
55138,36176
55231,36398
55231,36639
55139,36861
54981,37019
55138,37176
55231,37398
55231,37639
55139,37861
54981,38019
55138,38176
55231,38398
55231,38639
55139,38861
54981,39019
55138,39176
55231,39398
55231,39639
55139,39861
54981,40019
55138,40176
55231,40398
55231,40639
55139,40861
54969,41031
54961,41035
54981,41094
54626,41448
54272,41094
54292,41035
54284,41032
54187,40935
54148,40974
54148,41183
54201,41165
54556,41519
54201,41874
54148,41856
54148,42143
54284,42007
54292,42004
54272,41944
54626,41590
54981,41944
54961,42004
54968,42007
55138,42176
55144,42190
61085,42190
61400,41875
61400,41424
55235,41424
55225,41665
55153,41840
55052,41874
54697,41519
55052,41165
55153,41199
55235,41424
61400,41424
61400,34414
61329,34414
61236,34397
61151,34342
61111,34283
60977,34373
60729,34422
60480,34373
60269,34232
60173,34088
59606,34088
59606,34133
59588,34226
59533,34311
59450,34368
59351,34388
58800,34388
58707,34371
58622,34316
58565,34233
58545,34133
58545,33425
58306,33425
58306,34133
58289,34226
58234,34311
58151,34368
58052,34388
57500,34388
57408,34371
57323,34316
57266,34233
57245,34133
57245,33425
57263,33332
57318,33247
57401,33190
57500,33170
58052,33170
58144,33187
58229,33242
58286,33326
58306,33425
58545,33425
58562,33332
58617,33247
58700,33190
58800,33170
59351,33170
59443,33187
59528,33242
59586,33326
59606,33425
59606,33431
60173,33431
60269,33287
60400,33200
60400,31909
60405,31881
60425,31783
60496,31676
60713,31460
60739,31442
60819,31389
60945,31364
62599,31364
62725,31389
62831,31460
63028,31657
63099,31763
63124,31889
63124,33097
63142,33085
63241,33064
63353,33064
63353,32331
63323,32312
63266,32228
63246,32129
63246,31775
63263,31682
63318,31597
63401,31540
63500,31520
63973,31520
64065,31537
64151,31592
64169,31619
64184,31597
64267,31540
64278,31538
64278,30831
64278,30831
64193,30776
64175,30749
64119,30805
64027,30843
63853,30843
63791,30781
63791,30466
63691,30466
63691,30781
63628,30843
63455,30843
63363,30805
63293,30735
63255,30643
63255,30528
63317,30466
63691,30466
63791,30466
63799,30466
63799,30366
63791,30366
63791,30051
63691,30051
63691,30366
63317,30366
63255,30303
63255,30189
63293,30097
63363,30027
63455,29989
63628,29989
63691,30051
63791,30051
63853,29989
64027,29989
64119,30027
64174,30082
64188,30061
64272,30004
64371,29984
64843,29984
64936,30001
65021,30056
65078,30140
65098,30239
65872,30239
65872,25550
65638,25550
65549,25697
65162,25854
64744,25851
64373,25697
64284,25550
64961,24873
65638,25550
65872,25550
65872,25350
65856,25391
65708,25479
65032,24803
64890,24803
64214,25479
64066,25391
63909,25004
63913,24586
64066,24215
64214,24126
64890,24803
65032,24803
65708,24126
65856,24215
65872,24256
65872,23891
65508,23891
65549,23908
" /> 
<polyline style="fill-rule:evenodd;"
points="48262,28285
48262,35135
48321,35146
48406,35201
48425,35227
48481,35171
48573,35133
48805,35133
48868,35196
48868,35579
48860,35579
48860,35679
48868,35679
48868,36063
48805,36125
48573,36125
48481,36087
48425,36032
48411,36053
48328,36110
48262,36124
48262,36211
48268,36211
48361,36229
48401,36255
48402,36254
48494,36216
48667,36216
48730,36279
48730,36564
48722,36564
48722,36664
48730,36664
48730,36949
48671,37007
48730,37066
48730,37351
48722,37351
48722,37451
48730,37451
48730,37736
48685,37781
48726,37781
48789,37843
48789,37983
48799,38031
48799,38404
48879,38404
48879,38031
48889,37980
48889,37843
48934,37799
48892,37799
48830,37736
48830,37451
49204,37451
49266,37514
49266,37598
49228,37690
49158,37761
49107,37782
49134,37776
49410,37776
49491,37791
49567,37776
49843,37776
49925,37791
50000,37776
50276,37776
50369,37794
50454,37848
50511,37932
50531,38031
50531,38070
50541,38080
50541,38493
50533,38493
50533,38593
50541,38593
50541,39006
50478,39068
50305,39068
50213,39030
50143,38960
50124,38916
50000,38916
49919,38900
49843,38916
49592,38916
49576,38996
49542,39047
49504,39103
48257,40350
48150,40421
48025,40446
43408,40446
43465,40532
43510,40755
43465,40979
43339,41169
43209,41255
43339,41342
43465,41532
43510,41755
43465,41979
43339,42169
43209,42255
43339,42342
43412,42451
43505,42470
43606,42537
44023,42954
44098,42954
44040,42897
44002,42805
44002,42435
44065,42372
44439,42372
44439,42380
44539,42380
44539,42372
44912,42372
44975,42435
44975,42805
44937,42897
44880,42954
50200,42954
50143,42897
50105,42805
50105,42568
49928,42568
49860,42733
49734,42858
49570,42927
49392,42927
49228,42859
49102,42733
49034,42569
49034,42568
46786,42568
46718,42733
46592,42858
46428,42927
46250,42927
46086,42859
45960,42733
45892,42569
45892,42391
45960,42227
46085,42101
46250,42033
46427,42033
46592,42101
46718,42226
46786,42391
46786,42568
49034,42568
49034,42391
49102,42227
49227,42101
49391,42033
49569,42033
49733,42101
49859,42226
49927,42391
49928,42568
50105,42568
50105,42435
50167,42372
50541,42372
50541,42380
50641,42380
50641,42372
51015,42372
51077,42435
51077,42805
51039,42897
50982,42954
52357,42954
52318,42755
52362,42532
52489,42342
52618,42255
52489,42169
52362,41979
52334,41840
51077,41840
51077,42210
51015,42272
50641,42272
50641,41702
50541,41702
50541,42272
50167,42272
50105,42210
50105,41840
44975,41840
44975,42210
44912,42272
44539,42272
44539,41702
44439,41702
44439,42272
44065,42272
44002,42210
44002,41840
44040,41748
44111,41677
44203,41639
44376,41639
44439,41702
44539,41702
44601,41639
44775,41639
44866,41677
44937,41748
44975,41840
50105,41840
50143,41748
50213,41677
50305,41639
50478,41639
50541,41702
50641,41702
50703,41639
50877,41639
50969,41677
51039,41748
51077,41840
52334,41840
52318,41755
52362,41532
52489,41342
52623,41252
52567,41226
52413,41057
52346,40896
52394,40805
52864,40805
52864,40813
52964,40813
52964,40805
52972,40805
52972,40705
52964,40705
52964,40698
52864,40698
52864,40705
52394,40705
52346,40615
52413,40453
52567,40285
52623,40258
52489,40169
52362,39979
52318,39755
52362,39532
52489,39342
52618,39255
52489,39169
52362,38979
52318,38755
52338,38655
51077,38655
51077,38868
51039,38960
50969,39030
50877,39068
50703,39068
50641,39006
50641,38593
51015,38593
51077,38655
52338,38655
52362,38532
52489,38342
52618,38255
52562,38217
51077,38217
51077,38430
51015,38493
50641,38493
50641,38080
50703,38017
50877,38017
50969,38055
51039,38126
51077,38217
52562,38217
52489,38169
52362,37979
52318,37755
52362,37532
52489,37342
52618,37255
52489,37169
52362,36979
52318,36755
52323,36726
49266,36726
49266,36811
49228,36903
49158,36973
49075,37007
49158,37041
49228,37112
49266,37204
49266,37289
49204,37351
48830,37351
48830,37066
48888,37007
48830,36949
48830,36664
49204,36664
49266,36726
52323,36726
52362,36532
52439,36416
49266,36416
49266,36501
49204,36564
48830,36564
48830,36279
48892,36216
49066,36216
49158,36254
49228,36324
49266,36416
52439,36416
52489,36342
52618,36255
52489,36169
52362,35979
52318,35755
52320,35742
49463,35742
49463,35925
49425,36017
49355,36087
49263,36125
49030,36125
48968,36063
48968,35679
49400,35679
49463,35742
52320,35742
52362,35532
52489,35342
52501,35334
49463,35334
49463,35517
49400,35579
48968,35579
48968,35196
49030,35133
49263,35133
49355,35171
49425,35242
49463,35334
52501,35334
52618,35255
52489,35169
52362,34979
52318,34755
52362,34532
52489,34342
52618,34255
52489,34169
52362,33979
52318,33755
52362,33532
52489,33342
52618,33255
52489,33169
52362,32979
52318,32755
52362,32532
52489,32342
52618,32255
52489,32169
52362,31979
52318,31755
52362,31532
52489,31342
52618,31255
52489,31169
52362,30979
52318,30755
52362,30532
52489,30342
52618,30255
52489,30169
52362,29979
52318,29755
52362,29532
52489,29342
52618,29255
52489,29169
52362,28979
52318,28755
52362,28532
52489,28342
52618,28255
52489,28169
52432,28084
48463,28084
48262,28285
" /> 
<polyline style="fill-rule:evenodd;"
points="58193,31323
58263,31393
58302,31485
58302,31777
58239,31839
57826,31839
57826,31831
57726,31831
57726,31839
57313,31839
57250,31777
57250,31485
57288,31393
57359,31323
57384,31312
56652,31312
56628,31336
56628,32297
56650,32293
57250,32293
57250,32002
57313,31939
57726,31939
57726,31947
57826,31947
57826,31939
58239,31939
58302,32002
58302,32277
58545,32034
58545,31535
58562,31442
58617,31357
58682,31312
58168,31312
58193,31323
" /> 
<polyline style="fill-rule:evenodd;"
points="63124,35167
63284,35007
63506,34915
63746,34915
63968,35007
64138,35176
64231,35398
64231,35639
64139,35861
63981,36019
64138,36176
64231,36398
64231,36639
64139,36861
63981,37019
64138,37176
64231,37398
64231,37639
64139,37861
63981,38019
64138,38176
64231,38398
64231,38639
64139,38861
63981,39019
64138,39176
64231,39398
64231,39639
64139,39861
63981,40019
64138,40176
64231,40398
64231,40639
64139,40861
63981,41019
64138,41176
64231,41398
64231,41639
64139,41861
63981,42019
64138,42176
64231,42398
64231,42639
64139,42861
63969,43031
63747,43123
63507,43124
63284,43032
63124,42872
63124,45472
63099,45598
63028,45704
62745,45988
62638,46059
62512,46084
53395,46084
53377,46111
63168,46111
64274,45005
64274,34597
63124,34597
63124,35167
" /> 
<polyline style="fill-rule:evenodd;"
points="43554,46111
52450,46111
52362,45979
52318,45755
52362,45532
52489,45342
52618,45255
52489,45169
52362,44979
52318,44755
52362,44532
52489,44342
52618,44255
52489,44169
52362,43979
52318,43755
52354,43572
43895,43572
43777,43549
43676,43482
43650,43455
43554,43455
43554,46111
" /> 
<polyline style="fill-rule:evenodd;"
points="62057,42011
62032,42137
61993,42197
61961,42244
61453,42752
61400,42787
61347,42823
61221,42848
55155,42848
55153,42850
55140,42858
55139,42861
54969,43031
54747,43123
54507,43124
54436,43095
53923,43266
53707,43482
53607,43549
53489,43572
53473,43572
53510,43755
53465,43979
53339,44169
53209,44255
53339,44342
53465,44532
53510,44755
53465,44979
53339,45169
53209,45255
53339,45342
53395,45427
62376,45427
62467,45336
62467,34597
62057,34597
62057,42011
" /> 
<polyline style="fill-rule:evenodd;"
points="63124,42167
63272,42019
63124,41872
63124,42167
" /> 
<polyline style="fill-rule:evenodd;"
points="63124,41167
63272,41019
63124,40872
63124,41167
" /> 
<polyline style="fill-rule:evenodd;"
points="63124,40167
63272,40019
63124,39872
63124,40167
" /> 
<polyline style="fill-rule:evenodd;"
points="63124,39167
63272,39019
63124,38872
63124,39167
" /> 
<polyline style="fill-rule:evenodd;"
points="63124,38167
63272,38019
63124,37872
63124,38167
" /> 
<polyline style="fill-rule:evenodd;"
points="63124,37167
63272,37019
63124,36872
63124,37167
" /> 
<polyline style="fill-rule:evenodd;"
points="63124,36167
63272,36019
63124,35872
63124,36167
" /> 
</g>
<g style="fill:#FFFFFF; fill-opacity:1.0; 
stroke:#FFFFFF; stroke-width:100; stroke-opacity:1; 
stroke-linecap:round; stroke-linejoin:round;">
</g>
<g style="fill:#FFFFFF; fill-opacity:1.0; 
stroke:#FFFFFF; stroke-width:0; stroke-opacity:1; 
stroke-linecap:round; stroke-linejoin:round;">
<circle cx="52914.3" cy="27755.9" r="68.8976" /> 
</g>
<g style="fill:#FFFFFF; fill-opacity:1.0; 
stroke:#FFFFFF; stroke-width:39.3701; stroke-opacity:1; 
stroke-linecap:round; stroke-linejoin:round;">
</g>
<g style="fill:#FFFFFF; fill-opacity:1.0; 
stroke:#FFFFFF; stroke-width:0; stroke-opacity:1; 
stroke-linecap:round; stroke-linejoin:round;">
<circle cx="52914.3" cy="28755.9" r="68.8976" /> 
</g>
<g style="fill:#FFFFFF; fill-opacity:1.0; 
stroke:#FFFFFF; stroke-width:39.3701; stroke-opacity:1; 
stroke-linecap:round; stroke-linejoin:round;">
</g>
<g style="fill:#FFFFFF; fill-opacity:1.0; 
stroke:#FFFFFF; stroke-width:0; stroke-opacity:1; 
stroke-linecap:round; stroke-linejoin:round;">
<circle cx="52914.3" cy="29755.9" r="68.8976" /> 
</g>
<g style="fill:#FFFFFF; fill-opacity:1.0; 
stroke:#FFFFFF; stroke-width:39.3701; stroke-opacity:1; 
stroke-linecap:round; stroke-linejoin:round;">
</g>
<g style="fill:#FFFFFF; fill-opacity:1.0; 
stroke:#FFFFFF; stroke-width:0; stroke-opacity:1; 
stroke-linecap:round; stroke-linejoin:round;">
<circle cx="52914.3" cy="30755.9" r="68.8976" /> 
</g>
<g style="fill:#FFFFFF; fill-opacity:1.0; 
stroke:#FFFFFF; stroke-width:39.3701; stroke-opacity:1; 
stroke-linecap:round; stroke-linejoin:round;">
</g>
<g style="fill:#FFFFFF; fill-opacity:1.0; 
stroke:#FFFFFF; stroke-width:0; stroke-opacity:1; 
stroke-linecap:round; stroke-linejoin:round;">
<circle cx="52914.3" cy="31755.9" r="68.8976" /> 
</g>
<g style="fill:#FFFFFF; fill-opacity:1.0; 
stroke:#FFFFFF; stroke-width:39.3701; stroke-opacity:1; 
stroke-linecap:round; stroke-linejoin:round;">
</g>
<g style="fill:#FFFFFF; fill-opacity:1.0; 
stroke:#FFFFFF; stroke-width:0; stroke-opacity:1; 
stroke-linecap:round; stroke-linejoin:round;">
<circle cx="52914.3" cy="32755.9" r="68.8976" /> 
</g>
<g style="fill:#FFFFFF; fill-opacity:1.0; 
stroke:#FFFFFF; stroke-width:39.3701; stroke-opacity:1; 
stroke-linecap:round; stroke-linejoin:round;">
</g>
<g style="fill:#FFFFFF; fill-opacity:1.0; 
stroke:#FFFFFF; stroke-width:0; stroke-opacity:1; 
stroke-linecap:round; stroke-linejoin:round;">
<circle cx="52914.3" cy="33755.9" r="68.8976" /> 
</g>
<g style="fill:#FFFFFF; fill-opacity:1.0; 
stroke:#FFFFFF; stroke-width:39.3701; stroke-opacity:1; 
stroke-linecap:round; stroke-linejoin:round;">
</g>
<g style="fill:#FFFFFF; fill-opacity:1.0; 
stroke:#FFFFFF; stroke-width:0; stroke-opacity:1; 
stroke-linecap:round; stroke-linejoin:round;">
<circle cx="52914.3" cy="34755.9" r="68.8976" /> 
</g>
<g style="fill:#FFFFFF; fill-opacity:1.0; 
stroke:#FFFFFF; stroke-width:39.3701; stroke-opacity:1; 
stroke-linecap:round; stroke-linejoin:round;">
</g>
<g style="fill:#FFFFFF; fill-opacity:1.0; 
stroke:#FFFFFF; stroke-width:0; stroke-opacity:1; 
stroke-linecap:round; stroke-linejoin:round;">
<circle cx="52914.3" cy="35755.9" r="68.8976" /> 
</g>
<g style="fill:#FFFFFF; fill-opacity:1.0; 
stroke:#FFFFFF; stroke-width:39.3701; stroke-opacity:1; 
stroke-linecap:round; stroke-linejoin:round;">
</g>
<g style="fill:#FFFFFF; fill-opacity:1.0; 
stroke:#FFFFFF; stroke-width:0; stroke-opacity:1; 
stroke-linecap:round; stroke-linejoin:round;">
<circle cx="52914.3" cy="36755.9" r="68.8976" /> 
</g>
<g style="fill:#FFFFFF; fill-opacity:1.0; 
stroke:#FFFFFF; stroke-width:39.3701; stroke-opacity:1; 
stroke-linecap:round; stroke-linejoin:round;">
</g>
<g style="fill:#FFFFFF; fill-opacity:1.0; 
stroke:#FFFFFF; stroke-width:0; stroke-opacity:1; 
stroke-linecap:round; stroke-linejoin:round;">
<circle cx="52914.3" cy="37755.9" r="68.8976" /> 
</g>
<g style="fill:#FFFFFF; fill-opacity:1.0; 
stroke:#FFFFFF; stroke-width:39.3701; stroke-opacity:1; 
stroke-linecap:round; stroke-linejoin:round;">
</g>
<g style="fill:#FFFFFF; fill-opacity:1.0; 
stroke:#FFFFFF; stroke-width:0; stroke-opacity:1; 
stroke-linecap:round; stroke-linejoin:round;">
<circle cx="52914.3" cy="38755.9" r="68.8976" /> 
</g>
<g style="fill:#FFFFFF; fill-opacity:1.0; 
stroke:#FFFFFF; stroke-width:39.3701; stroke-opacity:1; 
stroke-linecap:round; stroke-linejoin:round;">
</g>
<g style="fill:#FFFFFF; fill-opacity:1.0; 
stroke:#FFFFFF; stroke-width:0; stroke-opacity:1; 
stroke-linecap:round; stroke-linejoin:round;">
<circle cx="52914.3" cy="39755.9" r="68.8976" /> 
</g>
<g style="fill:#FFFFFF; fill-opacity:1.0; 
stroke:#FFFFFF; stroke-width:39.3701; stroke-opacity:1; 
stroke-linecap:round; stroke-linejoin:round;">
</g>
<g style="fill:#FFFFFF; fill-opacity:1.0; 
stroke:#FFFFFF; stroke-width:0; stroke-opacity:1; 
stroke-linecap:round; stroke-linejoin:round;">
<circle cx="52914.3" cy="40755.9" r="68.8976" /> 
</g>
<g style="fill:#FFFFFF; fill-opacity:1.0; 
stroke:#FFFFFF; stroke-width:39.3701; stroke-opacity:1; 
stroke-linecap:round; stroke-linejoin:round;">
</g>
<g style="fill:#FFFFFF; fill-opacity:1.0; 
stroke:#FFFFFF; stroke-width:0; stroke-opacity:1; 
stroke-linecap:round; stroke-linejoin:round;">
<circle cx="52914.3" cy="41755.9" r="68.8976" /> 
</g>
<g style="fill:#FFFFFF; fill-opacity:1.0; 
stroke:#FFFFFF; stroke-width:39.3701; stroke-opacity:1; 
stroke-linecap:round; stroke-linejoin:round;">
</g>
<g style="fill:#FFFFFF; fill-opacity:1.0; 
stroke:#FFFFFF; stroke-width:0; stroke-opacity:1; 
stroke-linecap:round; stroke-linejoin:round;">
<circle cx="52914.3" cy="42755.9" r="68.8976" /> 
</g>
<g style="fill:#FFFFFF; fill-opacity:1.0; 
stroke:#FFFFFF; stroke-width:39.3701; stroke-opacity:1; 
stroke-linecap:round; stroke-linejoin:round;">
</g>
<g style="fill:#FFFFFF; fill-opacity:1.0; 
stroke:#FFFFFF; stroke-width:0; stroke-opacity:1; 
stroke-linecap:round; stroke-linejoin:round;">
<circle cx="52914.3" cy="43755.9" r="68.8976" /> 
</g>
<g style="fill:#FFFFFF; fill-opacity:1.0; 
stroke:#FFFFFF; stroke-width:39.3701; stroke-opacity:1; 
stroke-linecap:round; stroke-linejoin:round;">
</g>
<g style="fill:#FFFFFF; fill-opacity:1.0; 
stroke:#FFFFFF; stroke-width:0; stroke-opacity:1; 
stroke-linecap:round; stroke-linejoin:round;">
<circle cx="52914.3" cy="44755.9" r="68.8976" /> 
</g>
<g style="fill:#FFFFFF; fill-opacity:1.0; 
stroke:#FFFFFF; stroke-width:39.3701; stroke-opacity:1; 
stroke-linecap:round; stroke-linejoin:round;">
</g>
<g style="fill:#FFFFFF; fill-opacity:1.0; 
stroke:#FFFFFF; stroke-width:0; stroke-opacity:1; 
stroke-linecap:round; stroke-linejoin:round;">
<circle cx="52914.3" cy="45755.9" r="68.8976" /> 
</g>
<g style="fill:#FFFFFF; fill-opacity:1.0; 
stroke:#FFFFFF; stroke-width:39.3701; stroke-opacity:1; 
stroke-linecap:round; stroke-linejoin:round;">
</g>
<g style="fill:#FFFFFF; fill-opacity:1.0; 
stroke:#FFFFFF; stroke-width:0; stroke-opacity:1; 
stroke-linecap:round; stroke-linejoin:round;">
<circle cx="42914.3" cy="45755.9" r="68.8976" /> 
</g>
<g style="fill:#FFFFFF; fill-opacity:1.0; 
stroke:#FFFFFF; stroke-width:39.3701; stroke-opacity:1; 
stroke-linecap:round; stroke-linejoin:round;">
</g>
<g style="fill:#FFFFFF; fill-opacity:1.0; 
stroke:#FFFFFF; stroke-width:0; stroke-opacity:1; 
stroke-linecap:round; stroke-linejoin:round;">
<circle cx="42914.3" cy="44755.9" r="68.8976" /> 
</g>
<g style="fill:#FFFFFF; fill-opacity:1.0; 
stroke:#FFFFFF; stroke-width:39.3701; stroke-opacity:1; 
stroke-linecap:round; stroke-linejoin:round;">
</g>
<g style="fill:#FFFFFF; fill-opacity:1.0; 
stroke:#FFFFFF; stroke-width:0; stroke-opacity:1; 
stroke-linecap:round; stroke-linejoin:round;">
<circle cx="42914.3" cy="43755.9" r="68.8976" /> 
</g>
<g style="fill:#FFFFFF; fill-opacity:1.0; 
stroke:#FFFFFF; stroke-width:39.3701; stroke-opacity:1; 
stroke-linecap:round; stroke-linejoin:round;">
</g>
<g style="fill:#FFFFFF; fill-opacity:1.0; 
stroke:#FFFFFF; stroke-width:0; stroke-opacity:1; 
stroke-linecap:round; stroke-linejoin:round;">
<circle cx="42914.3" cy="42755.9" r="68.8976" /> 
</g>
<g style="fill:#FFFFFF; fill-opacity:1.0; 
stroke:#FFFFFF; stroke-width:39.3701; stroke-opacity:1; 
stroke-linecap:round; stroke-linejoin:round;">
</g>
<g style="fill:#FFFFFF; fill-opacity:1.0; 
stroke:#FFFFFF; stroke-width:0; stroke-opacity:1; 
stroke-linecap:round; stroke-linejoin:round;">
<circle cx="42914.3" cy="41755.9" r="68.8976" /> 
</g>
<g style="fill:#FFFFFF; fill-opacity:1.0; 
stroke:#FFFFFF; stroke-width:39.3701; stroke-opacity:1; 
stroke-linecap:round; stroke-linejoin:round;">
</g>
<g style="fill:#FFFFFF; fill-opacity:1.0; 
stroke:#FFFFFF; stroke-width:0; stroke-opacity:1; 
stroke-linecap:round; stroke-linejoin:round;">
<circle cx="42914.3" cy="40755.9" r="68.8976" /> 
</g>
<g style="fill:#FFFFFF; fill-opacity:1.0; 
stroke:#FFFFFF; stroke-width:39.3701; stroke-opacity:1; 
stroke-linecap:round; stroke-linejoin:round;">
</g>
<g style="fill:#FFFFFF; fill-opacity:1.0; 
stroke:#FFFFFF; stroke-width:0; stroke-opacity:1; 
stroke-linecap:round; stroke-linejoin:round;">
<circle cx="42914.3" cy="39755.9" r="68.8976" /> 
</g>
<g style="fill:#FFFFFF; fill-opacity:1.0; 
stroke:#FFFFFF; stroke-width:39.3701; stroke-opacity:1; 
stroke-linecap:round; stroke-linejoin:round;">
</g>
<g style="fill:#FFFFFF; fill-opacity:1.0; 
stroke:#FFFFFF; stroke-width:0; stroke-opacity:1; 
stroke-linecap:round; stroke-linejoin:round;">
<circle cx="42914.3" cy="38755.9" r="68.8976" /> 
</g>
<g style="fill:#FFFFFF; fill-opacity:1.0; 
stroke:#FFFFFF; stroke-width:39.3701; stroke-opacity:1; 
stroke-linecap:round; stroke-linejoin:round;">
</g>
<g style="fill:#FFFFFF; fill-opacity:1.0; 
stroke:#FFFFFF; stroke-width:0; stroke-opacity:1; 
stroke-linecap:round; stroke-linejoin:round;">
<circle cx="42914.3" cy="37755.9" r="68.8976" /> 
</g>
<g style="fill:#FFFFFF; fill-opacity:1.0; 
stroke:#FFFFFF; stroke-width:39.3701; stroke-opacity:1; 
stroke-linecap:round; stroke-linejoin:round;">
</g>
<g style="fill:#FFFFFF; fill-opacity:1.0; 
stroke:#FFFFFF; stroke-width:0; stroke-opacity:1; 
stroke-linecap:round; stroke-linejoin:round;">
<circle cx="42914.3" cy="36755.9" r="68.8976" /> 
</g>
<g style="fill:#FFFFFF; fill-opacity:1.0; 
stroke:#FFFFFF; stroke-width:39.3701; stroke-opacity:1; 
stroke-linecap:round; stroke-linejoin:round;">
</g>
<g style="fill:#FFFFFF; fill-opacity:1.0; 
stroke:#FFFFFF; stroke-width:0; stroke-opacity:1; 
stroke-linecap:round; stroke-linejoin:round;">
<circle cx="42914.3" cy="35755.9" r="68.8976" /> 
</g>
<g style="fill:#FFFFFF; fill-opacity:1.0; 
stroke:#FFFFFF; stroke-width:39.3701; stroke-opacity:1; 
stroke-linecap:round; stroke-linejoin:round;">
</g>
<g style="fill:#FFFFFF; fill-opacity:1.0; 
stroke:#FFFFFF; stroke-width:0; stroke-opacity:1; 
stroke-linecap:round; stroke-linejoin:round;">
<circle cx="42914.3" cy="34755.9" r="68.8976" /> 
</g>
<g style="fill:#FFFFFF; fill-opacity:1.0; 
stroke:#FFFFFF; stroke-width:39.3701; stroke-opacity:1; 
stroke-linecap:round; stroke-linejoin:round;">
</g>
<g style="fill:#FFFFFF; fill-opacity:1.0; 
stroke:#FFFFFF; stroke-width:0; stroke-opacity:1; 
stroke-linecap:round; stroke-linejoin:round;">
<circle cx="42914.3" cy="33755.9" r="68.8976" /> 
</g>
<g style="fill:#FFFFFF; fill-opacity:1.0; 
stroke:#FFFFFF; stroke-width:39.3701; stroke-opacity:1; 
stroke-linecap:round; stroke-linejoin:round;">
</g>
<g style="fill:#FFFFFF; fill-opacity:1.0; 
stroke:#FFFFFF; stroke-width:0; stroke-opacity:1; 
stroke-linecap:round; stroke-linejoin:round;">
<circle cx="42914.3" cy="32755.9" r="68.8976" /> 
</g>
<g style="fill:#FFFFFF; fill-opacity:1.0; 
stroke:#FFFFFF; stroke-width:39.3701; stroke-opacity:1; 
stroke-linecap:round; stroke-linejoin:round;">
</g>
<g style="fill:#FFFFFF; fill-opacity:1.0; 
stroke:#FFFFFF; stroke-width:0; stroke-opacity:1; 
stroke-linecap:round; stroke-linejoin:round;">
<circle cx="42914.3" cy="31755.9" r="68.8976" /> 
</g>
<g style="fill:#FFFFFF; fill-opacity:1.0; 
stroke:#FFFFFF; stroke-width:39.3701; stroke-opacity:1; 
stroke-linecap:round; stroke-linejoin:round;">
</g>
<g style="fill:#FFFFFF; fill-opacity:1.0; 
stroke:#FFFFFF; stroke-width:0; stroke-opacity:1; 
stroke-linecap:round; stroke-linejoin:round;">
<circle cx="42914.3" cy="30755.9" r="68.8976" /> 
</g>
<g style="fill:#FFFFFF; fill-opacity:1.0; 
stroke:#FFFFFF; stroke-width:39.3701; stroke-opacity:1; 
stroke-linecap:round; stroke-linejoin:round;">
</g>
<g style="fill:#FFFFFF; fill-opacity:1.0; 
stroke:#FFFFFF; stroke-width:0; stroke-opacity:1; 
stroke-linecap:round; stroke-linejoin:round;">
<circle cx="42914.3" cy="29755.9" r="68.8976" /> 
</g>
<g style="fill:#FFFFFF; fill-opacity:1.0; 
stroke:#FFFFFF; stroke-width:39.3701; stroke-opacity:1; 
stroke-linecap:round; stroke-linejoin:round;">
</g>
<g style="fill:#FFFFFF; fill-opacity:1.0; 
stroke:#FFFFFF; stroke-width:0; stroke-opacity:1; 
stroke-linecap:round; stroke-linejoin:round;">
<circle cx="42914.3" cy="28755.9" r="68.8976" /> 
</g>
<g style="fill:#FFFFFF; fill-opacity:1.0; 
stroke:#FFFFFF; stroke-width:39.3701; stroke-opacity:1; 
stroke-linecap:round; stroke-linejoin:round;">
</g>
<g style="fill:#FFFFFF; fill-opacity:1.0; 
stroke:#FFFFFF; stroke-width:0; stroke-opacity:1; 
stroke-linecap:round; stroke-linejoin:round;">
<circle cx="42914.3" cy="27755.9" r="68.8976" /> 
</g>
<g style="fill:#FFFFFF; fill-opacity:1.0; 
stroke:#FFFFFF; stroke-width:39.3701; stroke-opacity:1; 
stroke-linecap:round; stroke-linejoin:round;">
</g>
<g style="fill:#FFFFFF; fill-opacity:1.0; 
stroke:#FFFFFF; stroke-width:0; stroke-opacity:1; 
stroke-linecap:round; stroke-linejoin:round;">
<circle cx="46339.4" cy="42480.3" r="68.8976" /> 
</g>
<g style="fill:#FFFFFF; fill-opacity:1.0; 
stroke:#FFFFFF; stroke-width:39.3701; stroke-opacity:1; 
stroke-linecap:round; stroke-linejoin:round;">
</g>
<g style="fill:#FFFFFF; fill-opacity:1.0; 
stroke:#FFFFFF; stroke-width:0; stroke-opacity:1; 
stroke-linecap:round; stroke-linejoin:round;">
<circle cx="49481.2" cy="42480.3" r="68.8976" /> 
</g>
<g style="fill:#FFFFFF; fill-opacity:1.0; 
stroke:#FFFFFF; stroke-width:39.3701; stroke-opacity:1; 
stroke-linecap:round; stroke-linejoin:round;">
</g>
<g style="fill:#FFFFFF; fill-opacity:1.0; 
stroke:#FFFFFF; stroke-width:0; stroke-opacity:1; 
stroke-linecap:round; stroke-linejoin:round;">
<circle cx="61729.2" cy="33759.8" r="68.8976" /> 
</g>
<g style="fill:#FFFFFF; fill-opacity:1.0; 
stroke:#FFFFFF; stroke-width:39.3701; stroke-opacity:1; 
stroke-linecap:round; stroke-linejoin:round;">
</g>
<g style="fill:#FFFFFF; fill-opacity:1.0; 
stroke:#FFFFFF; stroke-width:0; stroke-opacity:1; 
stroke-linecap:round; stroke-linejoin:round;">
<circle cx="60729.2" cy="33759.8" r="68.8976" /> 
</g>
<g style="fill:#FFFFFF; fill-opacity:1.0; 
stroke:#FFFFFF; stroke-width:39.3701; stroke-opacity:1; 
stroke-linecap:round; stroke-linejoin:round;">
</g>
<g style="fill:#FFFFFF; fill-opacity:1.0; 
stroke:#FFFFFF; stroke-width:0; stroke-opacity:1; 
stroke-linecap:round; stroke-linejoin:round;">
<circle cx="55284.3" cy="25984.3" r="68.8976" /> 
</g>
<g style="fill:#FFFFFF; fill-opacity:1.0; 
stroke:#FFFFFF; stroke-width:39.3701; stroke-opacity:1; 
stroke-linecap:round; stroke-linejoin:round;">
</g>
<g style="fill:#FFFFFF; fill-opacity:1.0; 
stroke:#FFFFFF; stroke-width:0; stroke-opacity:1; 
stroke-linecap:round; stroke-linejoin:round;">
<circle cx="56284.3" cy="25984.3" r="68.8976" /> 
</g>
<g style="fill:#FFFFFF; fill-opacity:1.0; 
stroke:#FFFFFF; stroke-width:39.3701; stroke-opacity:1; 
stroke-linecap:round; stroke-linejoin:round;">
</g>
<g style="fill:#FFFFFF; fill-opacity:1.0; 
stroke:#FFFFFF; stroke-width:0; stroke-opacity:1; 
stroke-linecap:round; stroke-linejoin:round;">
<circle cx="57284.3" cy="25984.3" r="68.8976" /> 
</g>
<g style="fill:#FFFFFF; fill-opacity:1.0; 
stroke:#FFFFFF; stroke-width:39.3701; stroke-opacity:1; 
stroke-linecap:round; stroke-linejoin:round;">
</g>
<g style="fill:#FFFFFF; fill-opacity:1.0; 
stroke:#FFFFFF; stroke-width:0; stroke-opacity:1; 
stroke-linecap:round; stroke-linejoin:round;">
<circle cx="58284.3" cy="25984.3" r="68.8976" /> 
</g>
<g style="fill:#FFFFFF; fill-opacity:1.0; 
stroke:#FFFFFF; stroke-width:39.3701; stroke-opacity:1; 
stroke-linecap:round; stroke-linejoin:round;">
</g>
<g style="fill:#FFFFFF; fill-opacity:1.0; 
stroke:#FFFFFF; stroke-width:0; stroke-opacity:1; 
stroke-linecap:round; stroke-linejoin:round;">
<circle cx="59284.3" cy="25984.3" r="68.8976" /> 
</g>
<g style="fill:#FFFFFF; fill-opacity:1.0; 
stroke:#FFFFFF; stroke-width:39.3701; stroke-opacity:1; 
stroke-linecap:round; stroke-linejoin:round;">
</g>
<g style="fill:#FFFFFF; fill-opacity:1.0; 
stroke:#FFFFFF; stroke-width:0; stroke-opacity:1; 
stroke-linecap:round; stroke-linejoin:round;">
<circle cx="60284.3" cy="25984.3" r="68.8976" /> 
</g>
<g style="fill:#FFFFFF; fill-opacity:1.0; 
stroke:#FFFFFF; stroke-width:39.3701; stroke-opacity:1; 
stroke-linecap:round; stroke-linejoin:round;">
</g>
<g style="fill:#FFFFFF; fill-opacity:1.0; 
stroke:#FFFFFF; stroke-width:0; stroke-opacity:1; 
stroke-linecap:round; stroke-linejoin:round;">
<circle cx="61284.3" cy="25984.3" r="68.8976" /> 
</g>
<g style="fill:#FFFFFF; fill-opacity:1.0; 
stroke:#FFFFFF; stroke-width:39.3701; stroke-opacity:1; 
stroke-linecap:round; stroke-linejoin:round;">
</g>
<g style="fill:#FFFFFF; fill-opacity:1.0; 
stroke:#FFFFFF; stroke-width:0; stroke-opacity:1; 
stroke-linecap:round; stroke-linejoin:round;">
<circle cx="62284.3" cy="25984.3" r="68.8976" /> 
</g>
<g style="fill:#FFFFFF; fill-opacity:1.0; 
stroke:#FFFFFF; stroke-width:39.3701; stroke-opacity:1; 
stroke-linecap:round; stroke-linejoin:round;">
</g>
<g style="fill:#FFFFFF; fill-opacity:1.0; 
stroke:#FFFFFF; stroke-width:0; stroke-opacity:1; 
stroke-linecap:round; stroke-linejoin:round;">
<circle cx="54626.9" cy="35519.7" r="68.8976" /> 
</g>
<g style="fill:#FFFFFF; fill-opacity:1.0; 
stroke:#FFFFFF; stroke-width:39.3701; stroke-opacity:1; 
stroke-linecap:round; stroke-linejoin:round;">
</g>
<g style="fill:#FFFFFF; fill-opacity:1.0; 
stroke:#FFFFFF; stroke-width:0; stroke-opacity:1; 
stroke-linecap:round; stroke-linejoin:round;">
<circle cx="54626.9" cy="36519.7" r="68.8976" /> 
</g>
<g style="fill:#FFFFFF; fill-opacity:1.0; 
stroke:#FFFFFF; stroke-width:39.3701; stroke-opacity:1; 
stroke-linecap:round; stroke-linejoin:round;">
</g>
<g style="fill:#FFFFFF; fill-opacity:1.0; 
stroke:#FFFFFF; stroke-width:0; stroke-opacity:1; 
stroke-linecap:round; stroke-linejoin:round;">
<circle cx="54626.9" cy="37519.7" r="68.8976" /> 
</g>
<g style="fill:#FFFFFF; fill-opacity:1.0; 
stroke:#FFFFFF; stroke-width:39.3701; stroke-opacity:1; 
stroke-linecap:round; stroke-linejoin:round;">
</g>
<g style="fill:#FFFFFF; fill-opacity:1.0; 
stroke:#FFFFFF; stroke-width:0; stroke-opacity:1; 
stroke-linecap:round; stroke-linejoin:round;">
<circle cx="54626.9" cy="38519.7" r="68.8976" /> 
</g>
<g style="fill:#FFFFFF; fill-opacity:1.0; 
stroke:#FFFFFF; stroke-width:39.3701; stroke-opacity:1; 
stroke-linecap:round; stroke-linejoin:round;">
</g>
<g style="fill:#FFFFFF; fill-opacity:1.0; 
stroke:#FFFFFF; stroke-width:0; stroke-opacity:1; 
stroke-linecap:round; stroke-linejoin:round;">
<circle cx="54626.9" cy="39519.7" r="68.8976" /> 
</g>
<g style="fill:#FFFFFF; fill-opacity:1.0; 
stroke:#FFFFFF; stroke-width:39.3701; stroke-opacity:1; 
stroke-linecap:round; stroke-linejoin:round;">
</g>
<g style="fill:#FFFFFF; fill-opacity:1.0; 
stroke:#FFFFFF; stroke-width:0; stroke-opacity:1; 
stroke-linecap:round; stroke-linejoin:round;">
<circle cx="54626.9" cy="40519.7" r="68.8976" /> 
</g>
<g style="fill:#FFFFFF; fill-opacity:1.0; 
stroke:#FFFFFF; stroke-width:39.3701; stroke-opacity:1; 
stroke-linecap:round; stroke-linejoin:round;">
</g>
<g style="fill:#FFFFFF; fill-opacity:1.0; 
stroke:#FFFFFF; stroke-width:0; stroke-opacity:1; 
stroke-linecap:round; stroke-linejoin:round;">
<circle cx="54626.9" cy="41519.7" r="68.8976" /> 
</g>
<g style="fill:#FFFFFF; fill-opacity:1.0; 
stroke:#FFFFFF; stroke-width:39.3701; stroke-opacity:1; 
stroke-linecap:round; stroke-linejoin:round;">
</g>
<g style="fill:#FFFFFF; fill-opacity:1.0; 
stroke:#FFFFFF; stroke-width:0; stroke-opacity:1; 
stroke-linecap:round; stroke-linejoin:round;">
<circle cx="54626.9" cy="42519.7" r="68.8976" /> 
</g>
<g style="fill:#FFFFFF; fill-opacity:1.0; 
stroke:#FFFFFF; stroke-width:39.3701; stroke-opacity:1; 
stroke-linecap:round; stroke-linejoin:round;">
</g>
<g style="fill:#FFFFFF; fill-opacity:1.0; 
stroke:#FFFFFF; stroke-width:0; stroke-opacity:1; 
stroke-linecap:round; stroke-linejoin:round;">
<circle cx="63626.9" cy="42519.7" r="68.8976" /> 
</g>
<g style="fill:#FFFFFF; fill-opacity:1.0; 
stroke:#FFFFFF; stroke-width:39.3701; stroke-opacity:1; 
stroke-linecap:round; stroke-linejoin:round;">
</g>
<g style="fill:#FFFFFF; fill-opacity:1.0; 
stroke:#FFFFFF; stroke-width:0; stroke-opacity:1; 
stroke-linecap:round; stroke-linejoin:round;">
<circle cx="63626.9" cy="41519.7" r="68.8976" /> 
</g>
<g style="fill:#FFFFFF; fill-opacity:1.0; 
stroke:#FFFFFF; stroke-width:39.3701; stroke-opacity:1; 
stroke-linecap:round; stroke-linejoin:round;">
</g>
<g style="fill:#FFFFFF; fill-opacity:1.0; 
stroke:#FFFFFF; stroke-width:0; stroke-opacity:1; 
stroke-linecap:round; stroke-linejoin:round;">
<circle cx="63626.9" cy="40519.7" r="68.8976" /> 
</g>
<g style="fill:#FFFFFF; fill-opacity:1.0; 
stroke:#FFFFFF; stroke-width:39.3701; stroke-opacity:1; 
stroke-linecap:round; stroke-linejoin:round;">
</g>
<g style="fill:#FFFFFF; fill-opacity:1.0; 
stroke:#FFFFFF; stroke-width:0; stroke-opacity:1; 
stroke-linecap:round; stroke-linejoin:round;">
<circle cx="63626.9" cy="39519.7" r="68.8976" /> 
</g>
<g style="fill:#FFFFFF; fill-opacity:1.0; 
stroke:#FFFFFF; stroke-width:39.3701; stroke-opacity:1; 
stroke-linecap:round; stroke-linejoin:round;">
</g>
<g style="fill:#FFFFFF; fill-opacity:1.0; 
stroke:#FFFFFF; stroke-width:0; stroke-opacity:1; 
stroke-linecap:round; stroke-linejoin:round;">
<circle cx="63626.9" cy="38519.7" r="68.8976" /> 
</g>
<g style="fill:#FFFFFF; fill-opacity:1.0; 
stroke:#FFFFFF; stroke-width:39.3701; stroke-opacity:1; 
stroke-linecap:round; stroke-linejoin:round;">
</g>
<g style="fill:#FFFFFF; fill-opacity:1.0; 
stroke:#FFFFFF; stroke-width:0; stroke-opacity:1; 
stroke-linecap:round; stroke-linejoin:round;">
<circle cx="63626.9" cy="37519.7" r="68.8976" /> 
</g>
<g style="fill:#FFFFFF; fill-opacity:1.0; 
stroke:#FFFFFF; stroke-width:39.3701; stroke-opacity:1; 
stroke-linecap:round; stroke-linejoin:round;">
</g>
<g style="fill:#FFFFFF; fill-opacity:1.0; 
stroke:#FFFFFF; stroke-width:0; stroke-opacity:1; 
stroke-linecap:round; stroke-linejoin:round;">
<circle cx="63626.9" cy="36519.7" r="68.8976" /> 
</g>
<g style="fill:#FFFFFF; fill-opacity:1.0; 
stroke:#FFFFFF; stroke-width:39.3701; stroke-opacity:1; 
stroke-linecap:round; stroke-linejoin:round;">
</g>
<g style="fill:#FFFFFF; fill-opacity:1.0; 
stroke:#FFFFFF; stroke-width:0; stroke-opacity:1; 
stroke-linecap:round; stroke-linejoin:round;">
<circle cx="63626.9" cy="35519.7" r="68.8976" /> 
</g>
<g style="fill:#FFFFFF; fill-opacity:1.0; 
stroke:#FFFFFF; stroke-width:39.3701; stroke-opacity:1; 
stroke-linecap:round; stroke-linejoin:round;">
</g>
<g style="fill:#FFFFFF; fill-opacity:1.0; 
stroke:#FFFFFF; stroke-width:0; stroke-opacity:1; 
stroke-linecap:round; stroke-linejoin:round;">
<circle cx="64961.5" cy="46850.4" r="68.8976" /> 
</g>
<g style="fill:#FFFFFF; fill-opacity:1.0; 
stroke:#FFFFFF; stroke-width:39.3701; stroke-opacity:1; 
stroke-linecap:round; stroke-linejoin:round;">
</g>
<g style="fill:#FFFFFF; fill-opacity:1.0; 
stroke:#FFFFFF; stroke-width:0; stroke-opacity:1; 
stroke-linecap:round; stroke-linejoin:round;">
<circle cx="41339.4" cy="46850.4" r="68.8976" /> 
</g>
<g style="fill:#FFFFFF; fill-opacity:1.0; 
stroke:#FFFFFF; stroke-width:39.3701; stroke-opacity:1; 
stroke-linecap:round; stroke-linejoin:round;">
</g>
<g style="fill:#FFFFFF; fill-opacity:1.0; 
stroke:#FFFFFF; stroke-width:0; stroke-opacity:1; 
stroke-linecap:round; stroke-linejoin:round;">
<circle cx="41339.4" cy="24803.1" r="68.8976" /> 
</g>
<g style="fill:#FFFFFF; fill-opacity:1.0; 
stroke:#FFFFFF; stroke-width:39.3701; stroke-opacity:1; 
stroke-linecap:round; stroke-linejoin:round;">
</g>
<g style="fill:#FFFFFF; fill-opacity:1.0; 
stroke:#FFFFFF; stroke-width:0; stroke-opacity:1; 
stroke-linecap:round; stroke-linejoin:round;">
<circle cx="64961.5" cy="24803.1" r="68.8976" /> 
</g>
<g style="fill:#FFFFFF; fill-opacity:1.0; 
stroke:#FFFFFF; stroke-width:39.3701; stroke-opacity:1; 
stroke-linecap:round; stroke-linejoin:round;">
</g>
<g style="fill:#FFFFFF; fill-opacity:1.0; 
stroke:#FFFFFF; stroke-width:0; stroke-opacity:1; 
stroke-linecap:round; stroke-linejoin:round;">
<circle cx="63682" cy="33759.8" r="68.8976" /> 
</g>
<g style="fill:#FFFFFF; fill-opacity:1.0; 
stroke:#FFFFFF; stroke-width:39.3701; stroke-opacity:1; 
stroke-linecap:round; stroke-linejoin:round;">
</g>
<g style="fill:#000000; fill-opacity:1.0; 
stroke:#000000; stroke-width:39.3701; stroke-opacity:1; 
stroke-linecap:round; stroke-linejoin:round;">
</g> 
</svg>
